# xmcd
#
# Track frame offsets:
#	182
#	17752
#	34375
#	57035
#	84665
#	104580
#	123512
#	140850
#	164975
#	177105
#	199460
#	220887
#	247250
#
# Disc length: 3506 seconds
#
# Revision: 0
# Processed by: cddbd v1.4PL0 Copyright (c) Steve Scherf et al.
# Submitted via: audiograbber 1.80.04
#
DISCID=d00db00d
DTITLE=Womack and Womack - Greatest Hits
DYEAR=1900
DGENRE=
TTITLE0=Teardrops (Remix)
TTITLE1=Celebrate The World
TTITLE2=Slave (Just For Love)
TTITLE3=Conscious Of My Conscience
TTITLE4=Good Man Monologue
TTITLE5=MPB (Missing Person Bureau) (Remix)
TTITLE6=Life's Just A Ball Game (Radio Mix)
TTITLE7=Friends (So Called)
TTITLE8=I Am Love
TTITLE9=Love Wars (Live Version)
TTITLE10=Take Me Home Country Roads (Live Version)
TTITLE11=Family (Live Version)
TTITLE12=Rejoice (Live Version)
EXTD=
EXTT0=
EXTT1=
EXTT2=
EXTT3=
EXTT4=
EXTT5=
EXTT6=
EXTT7=
EXTT8=
EXTT9=
EXTT10=
EXTT11=
EXTT12=
PLAYORDER=
